<?xml version="1.0" encoding="iso-8859-1"?>
<!-- Generator: Adobe Illustrator 19.0.0, SVG Export Plug-In . SVG Version: 6.00 Build 0)  -->
<svg version="1.1" id="Capa_1" xmlns="http://www.w3.org/2000/svg" xmlns:xlink="http://www.w3.org/1999/xlink" x="0px" y="0px"
	 viewBox="0 0 49.048 49.048" style="enable-background:new 0 0 49.048 49.048;" xml:space="preserve">
<g>
	<g>
		<path d="M7.158,24.96c-0.415-0.606-0.938-1.155-1.389-1.749c-0.461-0.608-0.968-1.203-1.301-1.88
			c-0.484-0.98-0.572-2.328,0.7-3.243c-1.265,0.574-2.534,1.14-3.793,1.726c-0.862,0.402-1.283,1.104-1.266,2.052
			c0.017,0.912,0.402,1.692,0.956,2.388c0.521,0.654,1.074,1.284,1.627,1.913c0.047,0.056,0.085,0.104,0.115,0.151
			c0.004,0.004,0.011,0.013,0.015,0.017c-0.308,0.131-0.613,0.271-0.909,0.407c-0.21,0.099-0.42,0.193-0.632,0.287
			c-1.164,0.517-1.56,1.513-1.083,2.73c0.287,0.74,0.946,1.201,1.718,1.201c0.159,0,0.324-0.021,0.487-0.061l0.029-0.01
			c0.176-0.068,0.334-0.154,0.479-0.25c1.26-0.548,2.507-1.125,3.739-1.728c0.808-0.396,1.128-1.125,1.146-2.013
			C7.81,26.169,7.573,25.57,7.158,24.96z M2.29,30.489c-0.126,0.029-0.251,0.043-0.373,0.043c-0.601,0-1.094-0.346-1.32-0.926
			c-0.391-1.008-0.095-1.764,0.859-2.186c0.214-0.096,0.425-0.191,0.638-0.291c0.315-0.146,0.641-0.297,0.965-0.434
			c0.022-0.008,0.042-0.019,0.062-0.025c0.11,0.143,0.232,0.316,0.345,0.521c0.17,0.332,0.298,0.738,0.269,1.182
			C3.682,29.136,3.277,30.089,2.29,30.489z"/>
	</g>
</g>
<g>
	<g>
		<path d="M15.038,22.478c-0.55-0.585-1.368-0.89-2.457-0.917H10.11v7.145h2.471c1.088-0.026,1.906-0.332,2.457-0.916
			c0.55-0.584,0.825-1.47,0.825-2.656C15.863,23.946,15.588,23.062,15.038,22.478z M15.013,26.503
			c-0.113,0.381-0.289,0.69-0.53,0.933c-0.239,0.239-0.545,0.414-0.915,0.522c-0.37,0.11-0.813,0.166-1.325,0.166h-1.451v-5.982
			h1.451c0.513,0,0.955,0.056,1.325,0.165c0.37,0.11,0.676,0.285,0.915,0.525c0.241,0.24,0.417,0.551,0.53,0.931
			c0.114,0.38,0.17,0.837,0.17,1.372C15.183,25.667,15.128,26.124,15.013,26.503z"/>
	</g>
</g>
<g>
	<g>
		<polygon points="33.533,28.125 33.533,21.561 32.852,21.561 32.852,28.707 37.535,28.707 37.535,28.125 		"/>
	</g>
</g>
<g>
	<g>
		<path d="M46.247,21.562l-0.759-0.001l-2.638,6.563h-3.945v-6.562h-0.683v7.145h4.395h0.29h0.43l0.861-2.223h3.25l0.871,2.223
			h0.729L46.247,21.562z M44.408,25.902l1.431-3.661l1.381,3.661H44.408z"/>
	</g>
</g>
<g>
	<g>
		<polygon points="24.407,21.561 22.778,27.815 22.758,27.815 21.006,21.561 20.156,21.561 18.415,27.815 18.395,27.815 
			16.774,21.561 16.044,21.561 18.024,28.707 18.764,28.707 20.565,22.312 20.585,22.312 22.396,28.707 23.118,28.707 
			25.088,21.561 		"/>
	</g>
</g>
<g>
	<g>
		<path d="M31.782,23.723c-0.139-0.447-0.35-0.843-0.63-1.186c-0.28-0.344-0.631-0.616-1.051-0.82
			c-0.422-0.203-0.91-0.305-1.473-0.305c-0.561,0-1.053,0.102-1.476,0.305c-0.424,0.204-0.774,0.477-1.057,0.82
			c-0.28,0.343-0.489,0.739-0.631,1.186c-0.141,0.447-0.211,0.917-0.211,1.411c0,0.494,0.07,0.966,0.211,1.41
			c0.142,0.446,0.352,0.84,0.631,1.183c0.279,0.34,0.633,0.61,1.057,0.813c0.423,0.202,0.915,0.305,1.476,0.305
			c0.562,0,1.051-0.103,1.473-0.305c0.42-0.203,0.771-0.476,1.051-0.813c0.279-0.343,0.49-0.732,0.63-1.183
			c0.141-0.444,0.21-0.916,0.21-1.41C31.992,24.641,31.923,24.171,31.782,23.723z M31.157,26.279
			c-0.104,0.377-0.264,0.713-0.48,1.011c-0.215,0.297-0.491,0.534-0.83,0.715c-0.336,0.181-0.74,0.271-1.215,0.271
			c-0.475,0-0.881-0.09-1.222-0.271c-0.34-0.181-0.618-0.418-0.835-0.715c-0.217-0.298-0.377-0.634-0.48-1.011
			c-0.103-0.377-0.153-0.76-0.153-1.146c0-0.396,0.052-0.777,0.153-1.151c0.104-0.373,0.266-0.708,0.48-1.005
			c0.217-0.297,0.495-0.535,0.835-0.716c0.341-0.18,0.747-0.27,1.222-0.27c0.475,0,0.879,0.09,1.215,0.27
			c0.339,0.181,0.613,0.419,0.83,0.716c0.219,0.297,0.377,0.632,0.48,1.005c0.104,0.374,0.155,0.757,0.155,1.151
			C31.313,25.52,31.26,25.902,31.157,26.279z"/>
	</g>
</g>
<g>
</g>
<g>
</g>
<g>
</g>
<g>
</g>
<g>
</g>
<g>
</g>
<g>
</g>
<g>
</g>
<g>
</g>
<g>
</g>
<g>
</g>
<g>
</g>
<g>
</g>
<g>
</g>
<g>
</g>
</svg>
